<svg height="512pt" viewBox="-22 0 512 512" width="512pt" xmlns="http://www.w3.org/2000/svg"><g fill="#ff9f34"><path d="m243.808594 105.996094c-4.191406 0-7.585938-3.398438-7.585938-7.585938v-90.824218c0-4.191407 3.394532-7.585938 7.585938-7.585938 4.1875 0 7.582031 3.394531 7.582031 7.585938v90.824218c0 4.1875-3.394531 7.585938-7.582031 7.585938zm0 0"/><path d="m243.808594 163.414062c-4.191406 0-7.585938-3.394531-7.585938-7.585937v-29.160156c0-4.191407 3.394532-7.585938 7.585938-7.585938 4.1875 0 7.582031 3.394531 7.582031 7.585938v29.160156c0 4.191406-3.394531 7.585937-7.582031 7.585937zm0 0"/><path d="m460.070312 231.429688h-90.828124c-4.1875 0-7.582032-3.394532-7.582032-7.585938 0-4.1875 3.394532-7.582031 7.582032-7.582031h90.828124c4.1875 0 7.582032 3.394531 7.582032 7.582031 0 4.191406-3.394532 7.585938-7.582032 7.585938zm0 0"/><path d="m340.984375 231.429688h-29.160156c-4.191407 0-7.585938-3.394532-7.585938-7.585938 0-4.1875 3.394531-7.582031 7.585938-7.582031h29.160156c4.191406 0 7.585937 3.394531 7.585937 7.582031 0 4.191406-3.394531 7.585938-7.585937 7.585938zm0 0"/><path d="m118.371094 231.429688h-90.824219c-4.1875 0-7.582031-3.394532-7.582031-7.585938 0-4.1875 3.394531-7.582031 7.582031-7.582031h90.828125c4.1875 0 7.582031 3.394531 7.582031 7.582031 0 4.191406-3.394531 7.585938-7.585937 7.585938zm0 0"/><path d="m175.792969 231.429688h-29.164063c-4.1875 0-7.582031-3.394532-7.582031-7.585938 0-4.1875 3.394531-7.582031 7.582031-7.582031h29.164063c4.191406 0 7.585937 3.394531 7.585937 7.582031 0 4.191406-3.398437 7.585938-7.585937 7.585938zm0 0"/><path d="m332.503906 142.734375c-1.941406 0-3.882812-.742187-5.363281-2.222656-2.960937-2.960938-2.960937-7.765625 0-10.726563l64.222656-64.222656c2.964844-2.960938 7.765625-2.960938 10.726563 0 2.960937 2.964844 2.960937 7.765625 0 10.726562l-64.222656 64.222657c-1.480469 1.480469-3.421876 2.222656-5.363282 2.222656zm0 0"/><path d="m291.902344 183.335938c-1.941406 0-3.882813-.742188-5.363282-2.222657-2.964843-2.960937-2.964843-7.765625 0-10.726562l20.621094-20.621094c2.960938-2.960937 7.765625-2.960937 10.726563 0 2.960937 2.960937 2.960937 7.765625 0 10.726563l-20.621094 20.621093c-1.480469 1.480469-3.421875 2.222657-5.363281 2.222657zm0 0"/><path d="m90.886719 384.347656c-1.941407 0-3.882813-.738281-5.363281-2.21875-2.960938-2.964844-2.960938-7.765625 0-10.726562l64.226562-64.222656c2.960938-2.964844 7.761719-2.964844 10.726562 0 2.960938 2.960937 2.960938 7.761718 0 10.722656l-64.226562 64.222656c-1.480469 1.484375-3.421875 2.222656-5.363281 2.222656zm0 0"/><path d="m175.09375 300.144531c-1.941406 0-3.882812-.738281-5.363281-2.222656-2.964844-2.960937-2.964844-7.761719 0-10.722656l20.621093-20.621094c2.960938-2.964844 7.765626-2.964844 10.726563 0 2.960937 2.960937 2.960937 7.761719 0 10.726563l-20.621094 20.621093c-1.480469 1.480469-3.421875 2.21875-5.363281 2.21875zm0 0"/><path d="m396.726562 384.347656c-1.941406 0-3.882812-.738281-5.363281-2.21875l-64.222656-64.222656c-2.960937-2.964844-2.960937-7.765625 0-10.726562 2.960937-2.960938 7.765625-2.960938 10.726563 0l64.222656 64.222656c2.964844 2.960937 2.964844 7.765625 0 10.726562-1.480469 1.480469-3.421875 2.21875-5.363282 2.21875zm0 0"/><path d="m312.523438 300.144531c-1.941407 0-3.882813-.738281-5.363282-2.222656l-20.621094-20.621094c-2.964843-2.960937-2.964843-7.761719 0-10.726562 2.960938-2.960938 7.765626-2.960938 10.726563 0l20.621094 20.621093c2.960937 2.964844 2.960937 7.765626 0 10.726563-1.480469 1.484375-3.421875 2.222656-5.363281 2.222656zm0 0"/><path d="m155.113281 142.734375c-1.941406 0-3.882812-.742187-5.363281-2.222656l-64.226562-64.222657c-2.960938-2.960937-2.960938-7.765624 0-10.726562 2.964843-2.960938 7.765624-2.960938 10.726562 0l64.226562 64.222656c2.960938 2.964844 2.960938 7.765625 0 10.726563-1.480468 1.480469-3.425781 2.222656-5.363281 2.222656zm0 0"/><path d="m195.714844 183.335938c-1.941406 0-3.882813-.742188-5.363282-2.222657l-20.621093-20.621093c-2.964844-2.960938-2.964844-7.765626 0-10.726563 2.960937-2.960937 7.761719-2.960937 10.726562 0l20.621094 20.621094c2.960937 2.964843 2.960937 7.765625 0 10.726562-1.480469 1.480469-3.421875 2.222657-5.363281 2.222657zm0 0"/><path d="m243.808594 512c-4.191406 0-7.585938-3.394531-7.585938-7.585938v-212.554687c0-4.1875 3.394532-7.582031 7.585938-7.582031 4.1875 0 7.582031 3.394531 7.582031 7.582031v212.554687c0 4.191407-3.394531 7.585938-7.582031 7.585938zm0 0"/></g><path d="m268.878906 168.15625c-.921875 0-1.855468-.167969-2.765625-.523438-3.898437-1.53125-5.820312-5.929687-4.292969-9.832031l37.53125-95.738281c1.527344-3.902344 5.929688-5.824219 9.828126-4.292969 3.902343 1.527344 5.824218 5.929688 4.292968 9.828125l-37.527344 95.742188c-1.175781 2.988281-4.035156 4.816406-7.066406 4.816406zm0 0" fill="#ffdb56"/><path d="m181.203125 391.824219c-.921875 0-1.859375-.167969-2.765625-.523438-3.902344-1.53125-5.824219-5.929687-4.292969-9.832031l37.527344-95.738281c1.53125-3.902344 5.929687-5.824219 9.832031-4.292969 3.898438 1.527344 5.820313 5.929688 4.292969 9.828125l-37.53125 95.738281c-1.171875 2.992188-4.035156 4.820313-7.0625 4.820313zm0 0" fill="#ffdb56"/><path d="m312.472656 389.316406c-2.925781 0-5.710937-1.699218-6.957031-4.550781l-41.15625-94.234375c-1.679687-3.839844.074219-8.3125 3.914063-9.988281 3.835937-1.675781 8.308593.078125 9.984374 3.914062l41.160157 94.238281c1.675781 3.835938-.074219 8.308594-3.914063 9.984376-.988281.429687-2.019531.636718-3.03125.636718zm0 0" fill="#ffdb56"/><path d="m216.3125 169.160156c-2.925781 0-5.707031-1.699218-6.953125-4.550781l-41.160156-94.234375c-1.679688-3.839844.074219-8.3125 3.914062-9.988281 3.839844-1.675781 8.308594.078125 9.984375 3.914062l41.160156 94.238281c1.679688 3.835938-.074218 8.308594-3.914062 9.984376-.988281.433593-2.015625.636718-3.03125.636718zm0 0" fill="#ffdb56"/><path d="m403.507812 294.722656c-.917968 0-1.855468-.167968-2.765624-.523437l-95.738282-37.53125c-3.898437-1.527344-5.820312-5.929688-4.292968-9.828125 1.527343-3.902344 5.929687-5.820313 9.828124-4.296875l95.742188 37.53125c3.898438 1.53125 5.820312 5.929687 4.292969 9.832031-1.175781 2.988281-4.035157 4.816406-7.066407 4.816406zm0 0" fill="#ffdb56"/><path d="m179.839844 207.046875c-.917969 0-1.855469-.171875-2.765625-.527344l-95.738281-37.53125c-3.898438-1.527343-5.820313-5.925781-4.292969-9.828125 1.527343-3.898437 5.925781-5.824218 9.828125-4.292968l95.742187 37.53125c3.898438 1.527343 5.820313 5.929687 4.292969 9.828124-1.171875 2.992188-4.035156 4.820313-7.066406 4.820313zm0 0" fill="#ffdb56"/><path d="m86.617188 300.78125c-2.925782 0-5.710938-1.703125-6.957032-4.550781-1.675781-3.839844.078125-8.3125 3.917969-9.988281l94.234375-41.160157c3.839844-1.675781 8.3125.078125 9.988281 3.914063 1.675781 3.839844-.078125 8.308594-3.917969 9.988281l-94.234374 41.160156c-.988282.429688-2.019532.636719-3.03125.636719zm0 0" fill="#ffdb56"/><path d="m306.769531 204.621094c-2.921875 0-5.707031-1.699219-6.953125-4.550782-1.675781-3.839843.078125-8.308593 3.914063-9.988281l94.238281-41.160156c3.839844-1.675781 8.308594.078125 9.988281 3.914063 1.675781 3.839843-.078125 8.3125-3.917969 9.988281l-94.234374 41.160156c-.988282.433594-2.019532.636719-3.035157.636719zm0 0" fill="#ffdb56"/><path d="m285.074219 223.84375c0 22.792969-18.472657 41.269531-41.265625 41.269531-22.792969 0-41.265625-18.476562-41.265625-41.269531 0-22.789062 18.472656-41.265625 41.265625-41.265625 22.792968 0 41.265625 18.476563 41.265625 41.265625zm0 0" fill="#ff9f34"/><path d="m243.808594 182.578125c-5.957032 0-11.613282 1.273437-16.726563 3.542969 14.457031 6.417968 24.542969 20.890625 24.542969 37.722656 0 16.835938-10.085938 31.308594-24.542969 37.726562 5.113281 2.269532 10.769531 3.542969 16.726563 3.542969 22.792968 0 41.265625-18.476562 41.265625-41.269531 0-22.789062-18.472657-41.265625-41.265625-41.265625zm0 0" fill="#fb8f2d"/><path d="m75.058594 418.101562c0 15.214844-12.332032 27.546876-27.546875 27.546876-15.214844 0-27.550781-12.332032-27.550781-27.546876 0-15.214843 12.335937-27.546874 27.550781-27.546874 15.214843 0 27.546875 12.332031 27.546875 27.546874zm0 0" fill="#ffdb56"/><path d="m47.511719 390.554688c-4.53125 0-8.792969 1.113281-12.558594 3.046874 8.890625 4.570313 14.988281 13.816407 14.988281 24.5 0 10.683594-6.097656 19.929688-14.988281 24.496094 3.765625 1.9375 8.027344 3.050782 12.558594 3.050782 15.214843 0 27.546875-12.332032 27.546875-27.546876 0-15.214843-12.332032-27.546874-27.546875-27.546874zm0 0" fill="#f6c134"/><path d="m55.09375 141.25c0 15.210938-12.332031 27.546875-27.546875 27.546875s-27.546875-12.335937-27.546875-27.546875c0-15.214844 12.332031-27.546875 27.546875-27.546875s27.546875 12.332031 27.546875 27.546875zm0 0" fill="#ffdb56"/><path d="m27.546875 113.703125c-4.527344 0-8.789063 1.113281-12.558594 3.046875 8.894531 4.570312 14.988281 13.8125 14.988281 24.5 0 10.683594-6.09375 19.929688-14.988281 24.496094 3.769531 1.9375 8.03125 3.050781 12.558594 3.050781 15.214844 0 27.546875-12.332031 27.546875-27.546875s-12.332031-27.546875-27.546875-27.546875zm0 0" fill="#f6c134"/><path d="m467.652344 418.101562c0 15.214844-12.332032 27.546876-27.546875 27.546876-15.214844 0-27.546875-12.332032-27.546875-27.546876 0-15.214843 12.332031-27.546874 27.546875-27.546874 15.214843 0 27.546875 12.332031 27.546875 27.546874zm0 0" fill="#ffdb56"/><path d="m440.105469 390.554688c-4.527344 0-8.789063 1.113281-12.558594 3.046874 8.894531 4.570313 14.988281 13.816407 14.988281 24.5 0 10.683594-6.09375 19.929688-14.988281 24.496094 3.769531 1.9375 8.03125 3.050782 12.558594 3.050782 15.214843 0 27.546875-12.332032 27.546875-27.546876 0-15.214843-12.332032-27.546874-27.546875-27.546874zm0 0" fill="#f6c134"/><path d="m459.003906 32.34375c0 15.214844-12.335937 27.550781-27.546875 27.550781-15.214843 0-27.550781-12.335937-27.550781-27.550781 0-15.210938 12.335938-27.546875 27.550781-27.546875 15.210938 0 27.546875 12.335937 27.546875 27.546875zm0 0" fill="#ffdb56"/><path d="m431.457031 4.796875c-4.53125 0-8.792969 1.113281-12.5625 3.050781 8.894531 4.570313 14.988281 13.8125 14.988281 24.496094 0 10.6875-6.09375 19.929688-14.988281 24.5 3.769531 1.9375 8.03125 3.050781 12.5625 3.050781 15.210938 0 27.546875-12.335937 27.546875-27.550781 0-15.210938-12.335937-27.546875-27.546875-27.546875zm0 0" fill="#f6c134"/></svg>